<svg width="512" height="512" viewBox="0 0 512 512" fill="none" xmlns="http://www.w3.org/2000/svg">
<path d="M140.371 234.734C142.789 234.733 145.206 234.731 147.623 234.729C152.662 234.726 157.7 234.73 162.739 234.739C169.144 234.751 175.549 234.744 181.954 234.732C186.938 234.725 191.922 234.727 196.906 234.732C199.266 234.734 201.625 234.732 203.985 234.727C236.46 234.677 264.812 238.235 291 259C291.552 259.336 292.105 259.673 292.674 260.02C294.768 261.551 295.78 262.686 297 265C297.824 270.582 297.755 276.119 297.688 281.75C297.352 299.45 297.352 299.45 305 315C311.826 321.67 318.756 323.306 328 324C331.591 353.28 326.406 381.367 308.364 405.262C290.12 428.509 265.286 442.504 236.051 446.599C229.636 447.327 223.216 447.059 216.776 446.877C212.552 446.771 208.328 446.742 204.104 446.701C198.791 446.648 193.482 446.573 188.171 446.4C163.709 445.636 147.237 448.225 127.201 462.744C121.647 466.659 115.78 470.037 109.938 473.5C107.642 474.888 105.352 476.286 103.063 477.684C102.423 478.074 101.783 478.464 101.123 478.866C97.4485 481.111 93.7796 483.365 90.1133 485.624C87.5164 487.222 84.9165 488.816 82.3162 490.409C81.0724 491.173 79.8301 491.939 78.5894 492.708C76.8745 493.771 75.1542 494.825 73.4336 495.879C72.4545 496.483 71.4754 497.087 70.4666 497.709C68.0001 499 68.0001 499 65.0001 499C68.6616 478.593 72.7554 458.292 77.0001 438C76.2403 437.867 75.4806 437.733 74.6978 437.596C64.4747 435.338 54.5597 426.828 47.0001 420C46.1583 419.241 45.3165 418.482 44.4493 417.699C27.0295 401.146 14.1812 377.122 12.8231 352.835C12.2791 322.782 12.2791 322.782 17.0001 309C17.2144 308.366 17.4287 307.733 17.6495 307.08C27.2945 279.198 46.8233 257.714 73.3126 244.75C95.0833 235.262 116.969 234.688 140.371 234.734ZM85.0001 311C83.9178 313.91 83.9178 313.91 84.0001 317C85.0159 318.807 85.0159 318.807 87.0001 320C90.1004 320.458 90.1004 320.458 93.7186 320.388C94.7483 320.396 94.7483 320.396 95.7988 320.404C98.1044 320.418 100.409 320.411 102.715 320.404C104.366 320.41 106.016 320.417 107.667 320.425C112.155 320.443 116.642 320.442 121.13 320.436C124.872 320.433 128.615 320.439 132.358 320.445C141.185 320.459 150.012 320.457 158.839 320.446C167.954 320.435 177.069 320.449 186.185 320.475C194.004 320.498 201.823 320.504 209.642 320.498C214.315 320.495 218.988 320.498 223.662 320.515C228.055 320.53 232.447 320.526 236.84 320.507C238.455 320.504 240.069 320.507 241.684 320.517C243.884 320.53 246.082 320.519 248.282 320.501C249.514 320.501 250.746 320.501 252.016 320.501C255.08 320.273 255.08 320.273 256.959 318.133C258.289 315.981 258.289 315.981 257.375 313.375C256.08 310.734 256.08 310.734 253 309C249.965 308.697 249.965 308.697 246.44 308.746C245.771 308.743 245.101 308.74 244.412 308.737C242.164 308.729 239.916 308.735 237.668 308.741C236.059 308.739 234.449 308.735 232.839 308.731C228.463 308.722 224.087 308.725 219.711 308.731C215.135 308.736 210.559 308.732 205.984 308.729C198.297 308.725 190.611 308.73 182.925 308.739C174.036 308.75 165.147 308.747 156.258 308.736C148.63 308.727 141.003 308.725 133.376 308.731C128.818 308.734 124.261 308.734 119.703 308.727C115.418 308.722 111.133 308.726 106.847 308.737C105.274 308.74 103.7 308.739 102.126 308.735C99.9796 308.729 97.8334 308.736 95.687 308.746C93.8842 308.747 93.8842 308.747 92.0451 308.748C89.0929 308.992 87.4007 309.291 85.0001 311ZM126.011 363.367C124.549 365.729 124.592 367.278 125 370C125.967 371.789 125.967 371.789 128 373C130.768 373.301 133.311 373.42 136.08 373.404C136.903 373.411 137.726 373.418 138.574 373.425C141.298 373.443 144.022 373.439 146.746 373.434C148.638 373.438 150.53 373.443 152.422 373.45C156.389 373.458 160.356 373.456 164.323 373.446C169.408 373.435 174.493 373.455 179.579 373.484C183.487 373.502 187.394 373.502 191.302 373.496C193.177 373.496 195.052 373.502 196.927 373.515C199.549 373.53 202.169 373.519 204.791 373.502C205.567 373.511 206.342 373.521 207.141 373.531C210.672 373.483 212.647 373.262 215.521 371.133C217.27 369.072 217.27 369.072 216.875 366.375C216.135 363.856 216.135 363.856 214 362C211.276 361.796 208.652 361.717 205.926 361.725C204.675 361.718 204.675 361.718 203.398 361.71C200.631 361.696 197.865 361.697 195.098 361.699C193.18 361.695 191.262 361.691 189.343 361.686C185.319 361.679 181.295 361.679 177.271 361.684C172.108 361.69 166.945 361.673 161.782 361.65C157.819 361.635 153.857 361.634 149.894 361.638C147.991 361.637 146.087 361.632 144.183 361.622C141.523 361.609 138.863 361.616 136.203 361.628C135.413 361.62 134.623 361.612 133.809 361.605C129.666 361.62 129.666 361.62 126.011 363.367Z" fill="#26C67C"/>
<path d="M411.125 85.0625C413.122 86.6703 415.06 88.3215 417 90C417.673 90.5724 418.346 91.1447 419.039 91.7344C434.345 105.852 443.348 127.47 444.379 148.004C445.131 174.287 436.96 193.778 424.793 216.574C419.492 226.53 415.241 236.185 412 247C411.01 249.97 411.01 249.97 410 253C375.68 253 341.36 253 306 253C303.03 243.1 303.03 243.1 300 233C298.491 229.474 297.061 226.266 295.25 222.938C294.619 221.722 294.619 221.722 293.976 220.482C292.233 217.138 290.443 213.82 288.652 210.501C274.684 184.612 267.475 159.167 275 130C282.24 106.972 296.944 88.695 318 77C348.045 62.3617 384.359 64.4367 411.125 85.0625ZM386.326 128.992C385.62 129.635 384.913 130.277 384.185 130.939C380.653 134.271 377.202 137.675 373.781 141.121C373.038 141.866 372.295 142.611 371.529 143.378C369.183 145.729 366.842 148.083 364.5 150.438C362.899 152.044 361.297 153.65 359.695 155.256C355.794 159.168 351.896 163.083 348 167C344.796 165.478 342.709 163.916 340.25 161.34C339.559 160.629 338.868 159.918 338.156 159.186C336.717 157.685 335.279 156.182 333.844 154.678C333.153 153.968 332.462 153.258 331.75 152.527C331.126 151.875 330.502 151.223 329.859 150.551C327.83 148.858 326.636 148.173 324 148C321.229 150.354 321.229 150.354 319 153C321.051 159.437 325.993 163.551 330.648 168.204C332.247 169.81 333.821 171.438 335.395 173.068C336.413 174.095 337.432 175.121 338.453 176.145C339.373 177.076 340.292 178.008 341.239 178.968C344.598 181.44 345.911 181.509 350 181C352.632 179.281 352.632 179.281 355.011 176.781C355.955 175.859 356.899 174.938 357.871 173.988C358.882 172.969 359.893 171.95 360.902 170.93C361.949 169.89 362.997 168.85 364.045 167.812C366.236 165.634 368.416 163.445 370.588 161.249C373.373 158.436 376.186 155.652 379.009 152.877C381.177 150.738 383.329 148.582 385.476 146.422C386.507 145.389 387.543 144.361 388.585 143.339C390.038 141.908 391.467 140.452 392.894 138.996C394.123 137.763 394.123 137.763 395.376 136.506C397.298 134.052 397.298 134.052 396.944 130.813C396.22 127.705 396.22 127.705 393 126C389.385 126 388.925 126.628 386.326 128.992Z" fill="#26C67C"/>
<path d="M308 264C341 264 374 264 408 264C408 302 408 302 404 309C399.787 312.937 394.84 313.581 389.232 313.502C388.49 313.507 387.747 313.513 386.982 313.518C384.549 313.531 382.117 313.514 379.684 313.496C377.982 313.496 376.28 313.498 374.578 313.501C371.019 313.502 367.462 313.489 363.903 313.467C359.352 313.438 354.801 313.441 350.249 313.454C346.737 313.461 343.226 313.453 339.715 313.44C338.037 313.436 336.358 313.436 334.68 313.439C332.333 313.442 329.986 313.426 327.638 313.404C326.607 313.411 326.607 313.411 325.555 313.418C319.8 313.329 315.772 311.821 311.75 307.688C303.414 294.885 308 278.405 308 264Z" fill="#26C67C"/>
<path d="M458 53C460.036 56.0543 460.505 57.3491 459.86 60.9224C457.844 65.7914 453.578 69.3148 449.875 72.9375C449.032 73.8121 448.189 74.6868 447.32 75.5879C440.312 82.5586 440.312 82.5586 436.004 82.6328C433 82 433 82 431.063 80.9375C429.812 78.6577 429.336 76.7148 429.378 74.1106C430.855 69.1009 435.682 65.5951 439.375 62.125C440.264 61.2587 441.154 60.3925 442.07 59.5C450.465 51.3853 450.465 51.3853 458 53Z" fill="#26C67C"/>
<path d="M235.937 146.75C237.226 146.729 238.514 146.709 239.842 146.688C241.697 146.68 241.697 146.68 243.59 146.672C244.723 146.663 245.856 146.653 247.023 146.644C250.314 147.038 251.662 147.693 254 150C255.038 152.893 255.235 154.348 254.187 157.25C253 159 253 159 251 160C246.593 160.235 242.182 160.228 237.769 160.24C235.574 160.25 233.38 160.281 231.185 160.313C229.792 160.319 228.398 160.324 227.004 160.328C225.098 160.342 225.098 160.342 223.154 160.356C220 160 220 160 218.082 158.667C216.404 156.082 216.687 154.001 217 151C221.076 144.886 229.258 146.777 235.937 146.75Z" fill="#26C67C"/>
<path d="M354 13C359.548 12.3835 359.548 12.3835 362 13C366.525 17.5894 365.485 23.4218 365.446 29.4721C365.437 31.4942 365.466 33.5134 365.498 35.5351C365.497 36.8126 365.497 38.0901 365.496 39.4062C365.498 40.5748 365.5 41.7433 365.502 42.9472C364.899 46.6156 363.946 47.7971 361 50C357.914 50.4408 355.991 50.6513 353.339 48.9082C351.303 46.0066 351.628 43.5396 351.637 40.0312C351.636 39.3545 351.636 38.6778 351.635 37.9806C351.637 36.5516 351.647 35.1227 351.664 33.6938C351.687 31.5077 351.684 29.3229 351.678 27.1367C351.721 16.4188 351.721 16.4188 354 13Z" fill="#26C67C"/>
<path d="M472.594 146.504C473.871 146.503 475.149 146.503 476.465 146.502C477.459 146.518 477.459 146.518 478.472 146.533C480.494 146.562 482.513 146.554 484.535 146.541C494.28 146.605 494.28 146.605 497.385 148.308C499 150 499 150 499.438 153.5C499 157 499 157 497.908 158.694C495.004 160.682 492.517 160.389 489.031 160.398C488.355 160.401 487.678 160.404 486.981 160.407C485.552 160.409 484.123 160.404 482.694 160.391C480.508 160.375 478.323 160.391 476.137 160.41C474.747 160.408 473.358 160.404 471.969 160.398C470.705 160.395 469.441 160.392 468.139 160.388C465 160 465 160 463.092 158.659C461.348 156.009 461.559 154.084 462 151C465.122 146.824 467.508 146.496 472.594 146.504Z" fill="#26C67C"/>
<path d="M266 52.0001C268.501 53.7408 268.501 53.7408 270.926 56.1641C271.804 57.0394 272.683 57.9147 273.588 58.8165C274.487 59.7433 275.386 60.6701 276.312 61.6251C277.231 62.5287 278.149 63.4323 279.096 64.3633C286.638 72.0007 286.638 72.0007 287 78.0001C286 80.3751 286 80.3751 284 82.0001C279.98 82.442 277.789 82.5298 274.385 80.2435C273.59 79.4374 272.796 78.6313 271.977 77.8008C271.101 76.921 270.226 76.0413 269.324 75.1348C268.433 74.2035 267.543 73.2721 266.625 72.3126C265.711 71.4005 264.797 70.4885 263.855 69.5489C256.39 61.9224 256.39 61.9224 256 57.0001C257.881 51.7916 260.721 51.4647 266 52.0001Z" fill="#26C67C"/>
<path d="M355.583 325.76C357.859 325.75 360.134 325.719 362.41 325.687C363.854 325.681 365.298 325.676 366.742 325.672C368.061 325.663 369.379 325.653 370.738 325.644C374 326 374 326 375.93 327.333C377.611 329.951 377.378 331.974 377 335C375.926 336.658 375.926 336.658 374 338C369.44 338.593 364.86 338.515 360.267 338.501C358.007 338.5 355.751 338.542 353.492 338.586C352.057 338.591 350.622 338.594 349.188 338.594C347.882 338.601 346.576 338.608 345.231 338.615C342 338 342 338 340.004 335.666C339 333 339 333 339.75 329.75C342.526 323.643 349.621 325.775 355.583 325.76Z" fill="#26C67C"/>
</svg>
