<svg width="512" height="512" viewBox="0 0 512 512" fill="none" xmlns="http://www.w3.org/2000/svg">
<path d="M80.7606 63.7326C81.5351 63.7281 82.3096 63.7235 83.1076 63.7189C85.6991 63.7062 88.2905 63.7078 90.8821 63.7095C92.7417 63.7035 94.6014 63.6967 96.461 63.6891C101.511 63.6715 106.56 63.6668 111.61 63.6655C114.766 63.6641 117.922 63.6598 121.077 63.6545C132.09 63.636 143.102 63.6278 154.115 63.6294C164.375 63.6306 174.635 63.6095 184.896 63.5779C193.709 63.5518 202.521 63.541 211.334 63.5423C216.596 63.5428 221.858 63.5371 227.12 63.516C232.07 63.4966 237.02 63.4965 241.97 63.511C243.784 63.5131 245.598 63.5084 247.412 63.4963C249.895 63.4808 252.376 63.4902 254.858 63.5055C255.927 63.4901 255.927 63.4901 257.018 63.4744C263.41 63.5615 268.486 65.7968 273.242 69.9649C273.781 70.6158 274.32 71.2668 274.875 71.9375C275.429 72.5859 275.984 73.2343 276.555 73.9024C280.462 79.5739 280.297 84.8686 280.291 91.5383C280.297 92.5991 280.304 93.6599 280.311 94.7528C280.33 98.2584 280.334 101.764 280.336 105.27C280.342 107.709 280.349 110.149 280.356 112.589C280.368 117.704 280.372 122.82 280.371 127.935C280.37 134.482 280.398 141.028 280.432 147.575C280.454 152.615 280.458 157.656 280.457 162.696C280.46 165.109 280.469 167.522 280.484 169.935C280.504 173.315 280.498 176.694 280.486 180.074C280.497 181.065 280.508 182.057 280.52 183.079C280.454 190.365 278.881 195.712 274.035 201.242C273.384 201.781 272.733 202.32 272.062 202.875C271.414 203.429 270.766 203.984 270.098 204.555C264.595 208.346 259.692 208.246 253.231 208.128C251.201 208.109 249.17 208.09 247.14 208.071C246.066 208.058 244.992 208.044 243.885 208.03C238.166 207.965 232.448 207.961 226.729 207.945C219.465 207.922 212.202 207.881 204.939 207.777C199.058 207.695 193.179 207.672 187.298 207.687C185.07 207.682 182.842 207.656 180.614 207.607C165.634 207.292 156.598 209.191 145.532 219.605C143.451 221.5 141.191 223.05 138.844 224.594C138.119 225.081 137.395 225.567 136.649 226.069C135.94 226.541 135.231 227.014 134.5 227.5C127.542 232.185 120.777 237.059 114.162 242.219C113.554 242.687 112.947 243.155 112.32 243.637C111.797 244.046 111.274 244.456 110.735 244.878C109 246 109 246 104 248C104 234.8 104 221.6 104 208C94.1577 208.158 94.1577 208.158 84.3164 208.36C75.6166 208.431 69.5825 208.016 62.7578 202.035C61.9496 201.059 61.9496 201.059 61.125 200.063C60.5707 199.414 60.0164 198.766 59.4453 198.098C55.5375 192.426 55.7034 187.131 55.7095 180.462C55.7028 179.401 55.696 178.34 55.6891 177.247C55.6701 173.742 55.6662 170.236 55.6641 166.73C55.6576 164.291 55.6509 161.851 55.6439 159.411C55.6319 154.296 55.6282 149.18 55.6294 144.065C55.6296 137.518 55.6023 130.972 55.5679 124.425C55.5456 119.385 55.5416 114.345 55.5426 109.304C55.5403 106.891 55.5314 104.478 55.5159 102.065C55.4963 98.6849 55.5021 95.3062 55.5142 91.9265C55.5029 90.9346 55.4917 89.9426 55.4801 88.9206C55.5459 81.6354 57.1188 76.2879 61.9648 70.7578C62.6158 70.219 63.2668 69.6802 63.9375 69.125C64.5859 68.5707 65.2343 68.0164 65.9023 67.4453C70.686 64.1493 75.0723 63.7081 80.7606 63.7326ZM90 107C88.5796 109.841 88.6855 111.855 89 115C91.2321 117.848 92.5499 118.85 96 120C97.5481 120.101 99.1002 120.148 100.652 120.161C101.593 120.171 102.534 120.18 103.504 120.19C104.52 120.195 105.536 120.199 106.582 120.203C108.152 120.212 108.152 120.212 109.755 120.22C111.971 120.23 114.188 120.236 116.405 120.24C119.789 120.25 123.173 120.281 126.557 120.313C128.711 120.319 130.865 120.324 133.02 120.328C134.534 120.347 134.534 120.347 136.079 120.366C141.454 120.349 145.392 120.112 150 117C151.42 114.159 151.315 112.145 151 109C148.768 106.152 147.45 105.15 144 104C142.452 103.899 140.9 103.852 139.348 103.839C137.936 103.824 137.936 103.824 136.496 103.81C135.48 103.806 134.464 103.801 133.418 103.797C131.848 103.788 131.848 103.788 130.245 103.78C128.029 103.77 125.812 103.764 123.595 103.76C120.211 103.75 116.827 103.719 113.443 103.688C111.289 103.681 109.135 103.676 106.98 103.672C105.971 103.66 104.961 103.647 103.921 103.634C98.5458 103.651 94.6081 103.888 90 107ZM170 107C168.58 109.841 168.685 111.855 169 115C171.232 117.848 172.55 118.85 176 120C178.038 120.104 180.08 120.149 182.12 120.161C184.013 120.176 184.013 120.176 185.944 120.19C187.323 120.195 188.703 120.199 190.082 120.203C191.498 120.209 192.915 120.215 194.331 120.22C197.301 120.231 200.271 120.237 203.24 120.24C207.037 120.246 210.833 120.27 214.629 120.298C217.555 120.317 220.482 120.322 223.408 120.324C224.807 120.327 226.206 120.335 227.605 120.348C229.567 120.365 231.529 120.361 233.491 120.356C235.163 120.362 235.163 120.362 236.869 120.368C240.484 119.943 242.896 118.873 246 117C247.42 114.159 247.315 112.145 247 109C244.768 106.152 243.45 105.15 240 104C237.962 103.896 235.92 103.851 233.88 103.839C231.987 103.824 231.987 103.824 230.056 103.81C228.677 103.805 227.297 103.801 225.918 103.797C224.502 103.791 223.085 103.785 221.669 103.78C218.699 103.769 215.729 103.763 212.76 103.76C208.963 103.754 205.167 103.73 201.371 103.702C198.445 103.683 195.518 103.678 192.592 103.676C191.193 103.673 189.794 103.665 188.395 103.652C186.433 103.635 184.471 103.639 182.509 103.644C180.837 103.638 180.837 103.638 179.131 103.633C175.516 104.057 173.104 105.127 170 107ZM90 155C88.5796 157.841 88.6855 159.855 89 163C91.2321 165.848 92.5499 166.85 96 168C97.4205 168.094 98.845 168.135 100.269 168.14C101.139 168.146 102.01 168.152 102.907 168.158C103.859 168.159 104.811 168.16 105.792 168.161C106.797 168.166 107.803 168.171 108.838 168.176C112.169 168.191 115.501 168.198 118.832 168.203C121.145 168.209 123.458 168.215 125.771 168.22C130.624 168.231 135.477 168.237 140.33 168.24C146.548 168.246 152.765 168.27 158.983 168.298C163.762 168.317 168.541 168.322 173.321 168.324C175.613 168.327 177.905 168.335 180.197 168.348C183.405 168.365 186.612 168.363 189.82 168.356C190.766 168.366 191.712 168.375 192.687 168.384C197.864 168.352 201.541 167.946 206 165C207.42 162.159 207.315 160.145 207 157C204.768 154.152 203.45 153.15 200 152C198.579 151.906 197.155 151.865 195.731 151.86C194.861 151.854 193.99 151.848 193.093 151.842C191.665 151.841 191.665 151.841 190.208 151.839C188.7 151.831 188.7 151.831 187.162 151.824C183.831 151.809 180.499 151.802 177.168 151.797C174.855 151.791 172.542 151.785 170.229 151.78C165.376 151.769 160.523 151.763 155.67 151.76C149.452 151.754 143.235 151.73 137.017 151.702C132.238 151.683 127.459 151.678 122.679 151.676C120.387 151.673 118.095 151.665 115.803 151.652C112.595 151.635 109.388 151.637 106.18 151.644C104.761 151.63 104.761 151.63 103.313 151.616C98.1361 151.648 94.459 152.054 90 155Z" fill="#26C67C"/>
<path d="M256.761 23.7326C257.535 23.7281 258.31 23.7235 259.108 23.7189C261.699 23.7062 264.29 23.7078 266.882 23.7095C268.742 23.7035 270.601 23.6967 272.461 23.6891C277.511 23.6715 282.56 23.6668 287.61 23.6655C290.766 23.6641 293.922 23.6598 297.077 23.6545C308.09 23.636 319.102 23.6278 330.115 23.6294C340.375 23.6306 350.635 23.6095 360.896 23.5779C369.709 23.5518 378.521 23.541 387.334 23.5423C392.596 23.5428 397.858 23.5371 403.12 23.516C408.07 23.4966 413.02 23.4965 417.97 23.511C419.784 23.5131 421.598 23.5084 423.412 23.4963C425.895 23.4808 428.376 23.4902 430.858 23.5055C431.927 23.4901 431.927 23.4901 433.018 23.4744C439.41 23.5615 444.486 25.7968 449.242 29.9649C449.781 30.6158 450.32 31.2668 450.875 31.9375C451.429 32.5859 451.984 33.2343 452.555 33.9024C456.462 39.5739 456.297 44.8686 456.291 51.5383C456.297 52.5991 456.304 53.6599 456.311 54.7528C456.33 58.2584 456.334 61.7639 456.336 65.2695C456.342 67.7095 456.349 70.1494 456.356 72.5893C456.368 77.7045 456.372 82.8196 456.371 87.9348C456.37 94.4819 456.398 101.028 456.432 107.575C456.454 112.615 456.458 117.656 456.457 122.696C456.46 125.109 456.469 127.522 456.484 129.935C456.504 133.315 456.498 136.694 456.486 140.074C456.497 141.065 456.508 142.057 456.52 143.079C456.454 150.365 454.881 155.712 450.035 161.242C449.384 161.781 448.733 162.32 448.063 162.875C447.414 163.429 446.766 163.984 446.098 164.555C441.384 167.803 437.403 168.242 431.73 168.195C430.484 168.19 429.238 168.185 427.954 168.18C426.381 168.162 424.808 168.144 423.188 168.125C418.176 168.084 413.164 168.043 408 168C408 181.2 408 194.4 408 208C402.384 205.754 402.384 205.754 399.68 203.637C399.072 203.169 398.464 202.701 397.838 202.219C397.19 201.713 396.542 201.208 395.875 200.688C389.191 195.567 382.359 190.736 375.351 186.069C374.627 185.582 373.903 185.095 373.156 184.594C372.356 184.071 371.555 183.549 370.73 183.011C368.55 181.405 366.779 179.848 364.863 177.966C352.438 166.372 339.243 167.403 323 167.75C320.375 167.762 317.75 167.769 315.125 167.77C308.748 167.784 302.375 167.865 296 168C295.992 167.024 295.984 166.049 295.976 165.044C295.898 155.806 295.81 146.568 295.712 137.33C295.663 132.581 295.616 127.833 295.578 123.085C295.541 118.494 295.495 113.904 295.442 109.313C295.424 107.57 295.408 105.827 295.397 104.084C295.279 87.1181 294.626 72.0497 282.355 59.043C268.424 46.9601 249.286 48.5158 232 48C231.792 40.7903 232.889 36.3126 237.871 31.0078C243.892 25.522 248.572 23.6973 256.761 23.7326ZM314 67C312.58 69.8409 312.685 71.8548 313 75C315.232 77.8478 316.55 78.85 320 80C323.027 80.1072 326.031 80.1573 329.058 80.1611C330.449 80.1686 330.449 80.1686 331.867 80.1762C334.939 80.1908 338.01 80.1976 341.082 80.2031C343.216 80.2089 345.349 80.2146 347.483 80.2204C351.96 80.2309 356.436 80.2368 360.912 80.2402C366.646 80.2457 372.379 80.2698 378.112 80.2982C382.521 80.3169 386.929 80.3221 391.338 80.3236C393.452 80.3266 395.565 80.3346 397.679 80.3478C400.637 80.3648 403.595 80.3629 406.554 80.3565C407.425 80.3657 408.297 80.3749 409.195 80.3844C414.197 80.3501 417.675 79.804 422 77C423.42 74.1592 423.315 72.1452 423 69C420.768 66.1522 419.45 65.15 416 64C412.973 63.8928 409.969 63.8427 406.942 63.8389C405.551 63.8314 405.551 63.8314 404.133 63.8238C401.061 63.8092 397.99 63.8024 394.918 63.7969C392.784 63.7911 390.651 63.7854 388.517 63.7796C384.041 63.7691 379.564 63.7633 375.088 63.7598C369.354 63.7543 363.621 63.7303 357.888 63.7018C353.479 63.6832 349.071 63.678 344.662 63.6764C342.548 63.6734 340.435 63.6654 338.322 63.6523C335.363 63.6352 332.405 63.6371 329.446 63.6436C328.575 63.6344 327.703 63.6251 326.805 63.6156C321.803 63.65 318.325 64.196 314 67ZM314 115C312.58 117.841 312.685 119.855 313 123C315.232 125.848 316.55 126.85 320 128C322.038 128.104 324.08 128.149 326.12 128.161C328.013 128.176 328.013 128.176 329.944 128.19C331.323 128.195 332.703 128.199 334.082 128.203C335.498 128.209 336.915 128.215 338.331 128.22C341.301 128.231 344.271 128.237 347.24 128.24C351.037 128.246 354.833 128.27 358.629 128.298C361.555 128.317 364.482 128.322 367.408 128.324C368.807 128.327 370.206 128.335 371.605 128.348C373.567 128.365 375.529 128.361 377.491 128.356C379.163 128.362 379.163 128.362 380.869 128.368C384.484 127.943 386.896 126.873 390 125C391.42 122.159 391.315 120.145 391 117C388.768 114.152 387.45 113.15 384 112C381.962 111.896 379.92 111.851 377.88 111.839C375.987 111.824 375.987 111.824 374.056 111.81C372.677 111.805 371.297 111.801 369.918 111.797C368.502 111.791 367.086 111.785 365.669 111.78C362.699 111.769 359.729 111.763 356.76 111.76C352.963 111.754 349.167 111.73 345.371 111.702C342.445 111.683 339.518 111.678 336.592 111.676C335.193 111.673 333.794 111.665 332.395 111.652C330.433 111.635 328.471 111.639 326.509 111.644C324.837 111.638 324.837 111.638 323.131 111.633C319.516 112.057 317.104 113.127 314 115Z" fill="#26C67C"/>
<path d="M418.625 375.469C419.693 375.465 420.761 375.461 421.862 375.457C424.104 375.454 426.346 375.462 428.588 375.479C431.992 375.5 435.393 375.479 438.797 375.453C440.99 375.456 443.182 375.461 445.375 375.469C446.377 375.461 447.38 375.453 448.413 375.444C459.657 375.591 468.849 379.218 477 387C488.015 398.539 488.578 410.69 488.391 425.793C488.385 427.39 488.381 428.987 488.378 430.585C488.358 436.452 488.302 442.32 488.25 448.188C488.167 461.326 488.085 474.464 488 488C451.04 488 414.08 488 376 488C376 480.08 376 472.16 376 464C386.875 463.25 386.875 463.25 390.238 463.044C399.657 462.306 408.298 460.006 415 453C421.598 444.245 423.748 434.848 423 424C422.258 421.136 422.258 421.136 421 419C418.201 417.601 416.095 417.747 413 418C410.441 419.853 410.021 420.938 409 424C408.873 426.27 408.772 428.541 408.688 430.812C408.314 436.305 407.979 439.914 404 444C399.401 447.673 395.91 448.571 390.159 448.454C389.397 448.455 388.635 448.455 387.851 448.456C385.35 448.453 382.852 448.422 380.352 448.391C378.611 448.383 376.871 448.377 375.131 448.373C370.564 448.358 365.997 448.319 361.43 448.275C356.765 448.234 352.099 448.215 347.434 448.195C338.289 448.152 329.144 448.084 320 448C319.956 445.742 319.925 443.484 319.898 441.227C319.88 439.969 319.861 438.712 319.841 437.417C320.041 433.108 320.95 431.05 324 428C329.412 423.37 333.864 423.466 340.648 423.609C341.661 423.615 342.673 423.621 343.717 423.627C346.937 423.649 350.155 423.699 353.375 423.75C355.564 423.77 357.753 423.788 359.941 423.805C365.295 423.849 370.647 423.916 376 424C375.982 422.842 375.964 421.685 375.945 420.492C375.93 418.953 375.916 417.414 375.902 415.875C375.883 414.734 375.883 414.734 375.863 413.57C375.791 402.855 379.627 394.723 387 387C396.149 378.266 406.177 375.368 418.625 375.469Z" fill="#26C67C"/>
<path d="M66.625 375.469C67.6931 375.465 68.7613 375.461 69.8618 375.457C72.1038 375.454 74.3459 375.462 76.5879 375.479C79.9916 375.5 83.3932 375.479 86.7969 375.453C88.9896 375.456 91.1823 375.461 93.375 375.469C94.3774 375.461 95.3798 375.453 96.4126 375.444C107.657 375.591 116.849 379.218 125 387C133.173 395.562 136.299 404.186 136.098 415.875C136.091 416.659 136.084 417.443 136.076 418.25C136.058 420.167 136.03 422.083 136 424C136.844 423.987 136.844 423.987 137.706 423.973C143.578 423.884 149.451 423.824 155.324 423.78C157.514 423.76 159.704 423.733 161.894 423.698C165.047 423.65 168.199 423.627 171.352 423.609C172.327 423.589 173.302 423.568 174.307 423.547C180.079 423.545 183.44 424.099 188 428C191.05 431.05 191.959 433.108 192.159 437.417C192.14 438.674 192.121 439.931 192.102 441.227C192.087 442.493 192.072 443.76 192.057 445.065C192.038 446.034 192.019 447.002 192 448C181.934 448.093 171.868 448.164 161.801 448.207C157.126 448.228 152.452 448.256 147.778 448.302C143.265 448.345 138.752 448.369 134.239 448.38C132.519 448.387 130.8 448.401 129.08 448.423C126.667 448.452 124.255 448.456 121.841 448.454C121.134 448.468 120.426 448.483 119.696 448.498C114.671 448.456 111.891 447.108 108 444C103.224 439.095 103.457 433.849 103.273 427.34C103.008 424.102 102.486 421.872 101 419C98.2013 417.601 96.095 417.747 93 418C90.4405 419.853 90.0208 420.938 89 424C88.4227 434.775 90.1711 444.388 97 453C105.031 460.865 114.186 462.448 125 463.188C128.63 463.456 132.26 463.724 136 464C136 471.92 136 479.84 136 488C99.04 488 62.08 488 24 488C23.9175 474.862 23.835 461.724 23.75 448.188C23.7136 444.059 23.6772 439.93 23.6396 435.677C23.6216 430.585 23.6216 430.585 23.6182 428.191C23.6121 426.541 23.5982 424.89 23.5777 423.24C23.4102 409.011 24.7204 397.768 35 387C44.1491 378.266 54.1775 375.368 66.625 375.469Z" fill="#26C67C"/>
<path d="M232.93 359.566C234.77 359.562 236.61 359.556 238.45 359.55C242.295 359.542 246.139 359.544 249.984 359.554C254.881 359.565 259.778 359.545 264.676 359.516C268.473 359.498 272.27 359.498 276.068 359.504C277.872 359.504 279.676 359.498 281.48 359.485C298.5 359.384 310.925 362.413 323.75 374.312C331.627 382.635 336.143 392.662 336.188 404.125C336.14 405.75 336.083 407.376 336 409C335.322 409.075 334.644 409.149 333.945 409.227C324.859 410.51 317.409 413.559 311.562 420.875C305.736 429.623 305.445 437.161 304 448C272.32 448 240.64 448 208 448C207.01 441.73 206.02 435.46 205 429C200.962 420.266 195.905 414.83 186.937 411.187C183.32 409.97 179.79 409.395 176 409C175.002 394.915 179.703 384.657 188.656 374.035C201.059 360.667 215.819 359.529 232.93 359.566Z" fill="#26C67C"/>
<path d="M102.418 293.508C111.221 299.848 117.837 308.234 120 319C121.338 331.417 120.275 342.389 112.813 352.75C106 360.835 97.6951 367.063 86.9292 368.223C74.0179 369.119 63.2496 367.553 53.0664 358.973C44.5484 350.841 39.9975 342.192 39.5293 330.365C39.3743 317.85 42.1915 308.227 51 299C64.7802 285.845 86.1049 283.335 102.418 293.508Z" fill="#26C67C"/>
<path d="M278.418 277.508C287.221 283.848 293.837 292.234 296 303C297.338 315.417 296.275 326.389 288.812 336.75C282 344.835 273.695 351.063 262.929 352.223C250.018 353.119 239.25 351.553 229.066 342.973C220.548 334.841 215.998 326.192 215.529 314.365C215.374 301.85 218.191 292.227 227 283C240.78 269.845 262.105 267.335 278.418 277.508Z" fill="#26C67C"/>
<path d="M454.418 293.508C463.221 299.848 469.837 308.234 472 319C473.338 331.417 472.275 342.389 464.812 352.75C458 360.835 449.695 367.063 438.929 368.223C426.018 369.119 415.25 367.553 405.066 358.973C396.548 350.841 391.998 342.192 391.529 330.365C391.374 317.85 394.191 308.227 403 299C416.78 285.845 438.105 283.335 454.418 293.508Z" fill="#26C67C"/>
<path d="M152 464C220.64 464 289.28 464 360 464C360 471.92 360 479.84 360 488C291.36 488 222.72 488 152 488C152 480.08 152 472.16 152 464Z" fill="#26C67C"/>
</svg>
