<svg width="512" height="512" viewBox="0 0 512 512" fill="none" xmlns="http://www.w3.org/2000/svg">
<g clip-path="url(#clip0_18_120)">
<path d="M397 283C400.082 284.628 402.264 286.03 404.375 288.812C405.722 293.528 405.548 296.912 403.336 301.305C401.028 305.165 398.233 308.462 395.25 311.812C394.181 313.035 393.113 314.259 392.047 315.484C391.528 316.079 391.009 316.674 390.475 317.287C387.197 321.095 384.107 325.053 381 329C380.286 329.865 379.572 330.73 378.836 331.621C376.809 334.247 376.165 335.703 376 339C376.749 341.928 377.198 343.495 379.791 345.129C382.248 346.098 384.02 346.25 386.655 346.252C388.051 346.26 388.051 346.26 389.475 346.268C390.996 346.262 390.996 346.262 392.548 346.255C394.159 346.261 394.159 346.261 395.802 346.266C398.133 346.273 400.465 346.276 402.796 346.274C406.486 346.273 410.176 346.286 413.867 346.303C424.359 346.35 434.851 346.374 445.343 346.381C451.76 346.386 458.177 346.41 464.594 346.446C467.04 346.456 469.486 346.458 471.931 346.453C475.352 346.446 478.772 346.463 482.193 346.486C483.708 346.474 483.708 346.474 485.254 346.461C492.713 346.549 495.832 348.165 501.375 353.125C503.784 357.388 503.759 361.215 503 366C500.765 370.552 498.48 372.741 494 375C491.306 375.385 491.306 375.385 488.371 375.401C486.714 375.421 486.714 375.421 485.024 375.441C483.84 375.441 482.657 375.441 481.438 375.441C480.213 375.455 478.989 375.468 477.728 375.481C473.819 375.522 469.91 375.544 466 375.562C462.09 375.586 458.181 375.614 454.272 375.654C451.84 375.679 449.408 375.693 446.976 375.698C445.872 375.708 444.767 375.718 443.629 375.729C442.66 375.733 441.692 375.737 440.694 375.742C437.775 376.022 435.628 376.715 433 378C431.006 380.538 430.989 381.817 431.188 385.062C432.019 388.069 432.522 389.189 435 391C438.295 392.098 440.742 392.131 444.212 392.142C446.135 392.152 446.135 392.152 448.096 392.163C449.124 392.166 449.124 392.166 450.172 392.169C452.32 392.176 454.468 392.192 456.617 392.21C462.725 392.262 468.833 392.31 474.941 392.326C478.68 392.336 482.418 392.365 486.156 392.407C487.577 392.42 488.998 392.425 490.42 392.422C492.413 392.42 494.406 392.445 496.4 392.47C498.098 392.479 498.098 392.479 499.831 392.488C504.578 393.255 507.727 395.557 510.875 399.125C512.566 403.447 512.653 407.423 512 412C509.606 417.064 507.085 418.873 502 421C498.838 421.385 498.838 421.385 495.416 421.401C493.484 421.421 493.484 421.421 491.513 421.441C490.12 421.441 488.728 421.441 487.336 421.441C485.897 421.453 484.458 421.467 483.018 421.481C479.242 421.518 475.466 421.538 471.69 421.553C465.639 421.578 459.588 421.618 453.538 421.675C451.428 421.691 449.319 421.695 447.21 421.698C445.928 421.708 444.646 421.718 443.326 421.729C442.198 421.733 441.07 421.737 439.908 421.742C437.038 421.997 435.398 422.447 433 424C431.078 426.563 430.99 427.832 431.188 431.062C432.044 434.16 432.518 435.081 435 437C437.144 437.45 437.144 437.45 439.544 437.385C440.462 437.395 441.38 437.405 442.326 437.415C443.317 437.412 444.307 437.409 445.328 437.406C446.35 437.417 447.373 437.428 448.426 437.439C451.701 437.473 454.975 437.489 458.25 437.5C462.547 437.515 466.844 437.548 471.141 437.594C472.123 437.591 473.106 437.588 474.118 437.585C479.849 437.647 483.949 438.22 489 441C493.251 445.586 494.354 448.566 494.285 454.68C493.737 459.139 491.224 461.891 488 464.812C484.014 467.179 480.21 467.124 475.643 467.126C473.71 467.132 473.71 467.132 471.739 467.138C471.054 467.138 470.368 467.138 469.662 467.138C466.77 467.142 463.879 467.163 460.988 467.183C455.61 467.221 450.232 467.253 444.853 467.25C441.107 467.25 437.362 467.273 433.616 467.312C432.19 467.323 430.764 467.324 429.338 467.317C427.345 467.307 425.351 467.331 423.357 467.356C422.224 467.36 421.09 467.364 419.922 467.367C416.816 467.771 416.816 467.771 414.603 470.314C412.69 472.997 412.69 472.997 413 476.625C414.119 480.403 414.708 481.061 418 483C420.251 483.446 420.251 483.446 422.673 483.385C423.595 483.395 424.516 483.405 425.465 483.415C426.454 483.412 427.442 483.409 428.461 483.406C429.996 483.423 429.996 483.423 431.562 483.439C434.833 483.473 438.104 483.489 441.375 483.5C445.675 483.515 449.974 483.548 454.273 483.594C455.258 483.591 456.243 483.588 457.257 483.585C462.585 483.643 466.416 483.971 471 487C474.899 491.32 476.367 493.997 476.281 499.906C475.681 504.373 472.893 507.158 469.733 510.138C466.51 512.334 464.829 512.512 460.964 512.542C459.751 512.56 458.539 512.579 457.29 512.598C455.955 512.598 454.619 512.598 453.284 512.597C451.871 512.611 450.458 512.626 449.044 512.643C445.209 512.682 441.374 512.696 437.538 512.702C435.135 512.707 432.733 512.718 430.33 512.73C421.928 512.773 413.526 512.794 405.124 512.796C397.326 512.799 389.53 512.849 381.732 512.923C375.015 512.984 368.298 513.01 361.581 513.009C357.579 513.01 353.579 513.024 349.577 513.074C318.388 513.439 318.388 513.439 305 503C302.77 501.577 300.498 500.249 298.215 498.91C295.044 496.972 291.879 495.026 288.721 493.068C287.688 492.439 286.654 491.809 285.59 491.16C284.227 490.319 284.227 490.319 282.836 489.461C276.537 486.216 270.809 485.699 263.852 485.681C262.963 485.671 262.075 485.661 261.159 485.651C258.243 485.62 255.327 485.603 252.41 485.586C250.38 485.567 248.35 485.548 246.319 485.527C240.991 485.476 235.663 485.436 230.335 485.399C223.934 485.352 217.533 485.29 211.132 485.231C201.421 485.143 191.711 485.073 182 485C182 457.94 182 430.88 182 403C186.392 404.757 188.113 405.733 191.375 408.812C199.799 416.486 207.52 421.758 219.383 421.352C226.486 420.397 234.435 417.782 239 412C245.489 402.693 245.61 394.899 245 384C245.887 383.98 246.773 383.96 247.687 383.94C251.023 383.861 254.359 383.774 257.695 383.683C259.13 383.645 260.566 383.61 262.001 383.578C280.707 383.161 290.66 379.898 303.989 366.304C304.837 365.451 305.686 364.599 306.56 363.72C308.862 361.403 311.158 359.08 313.452 356.754C315.866 354.309 318.29 351.875 320.713 349.44C326.859 343.261 332.993 337.069 339.125 330.875C345.754 324.179 352.386 317.486 359.033 310.807C361.439 308.388 363.842 305.966 366.238 303.537C368.908 300.83 371.588 298.133 374.27 295.437C375.054 294.638 375.837 293.839 376.644 293.016C382.567 287.091 388.034 281.696 397 283Z" fill="#26C67C"/>
<path d="M51.0363 -0.541534C52.8547 -0.569291 52.8547 -0.569291 54.7097 -0.59761C56.0452 -0.597807 57.3806 -0.597547 58.7161 -0.596877C60.1293 -0.610491 61.5424 -0.625726 62.9556 -0.642455C66.791 -0.682035 70.6261 -0.695553 74.4617 -0.701913C76.8645 -0.706987 79.2672 -0.717506 81.6699 -0.729909C90.0721 -0.772918 98.474 -0.794125 106.876 -0.796096C114.674 -0.798522 122.47 -0.849337 130.268 -0.922988C136.985 -0.984165 143.702 -1.01001 150.419 -1.00943C154.421 -1.00971 158.421 -1.02371 162.423 -1.07379C193.612 -1.43899 193.612 -1.43899 207 9.00005C209.23 10.4229 211.502 11.7513 213.785 13.0899C216.956 15.0281 220.121 16.9738 223.279 18.9317C224.312 19.5614 225.346 20.1911 226.41 20.8399C227.773 21.6809 227.773 21.6809 229.164 22.5389C235.463 25.7842 241.191 26.3007 248.148 26.3189C249.481 26.334 249.481 26.334 250.841 26.3493C253.757 26.3801 256.673 26.3972 259.59 26.4141C261.62 26.4328 263.65 26.4524 265.681 26.4728C271.009 26.524 276.337 26.5637 281.665 26.6009C288.066 26.6481 294.467 26.7097 300.868 26.7688C310.579 26.8569 320.289 26.9267 330 27C330 54.06 330 81.12 330 109C325.608 107.243 323.976 106.333 320.75 103.25C312.296 95.5266 304.487 90.4138 292.687 90.6836C285.568 91.5219 277.559 94.2252 273 100C266.511 109.307 266.39 117.101 267 128C266.113 128.02 265.227 128.04 264.313 128.06C260.977 128.139 257.641 128.226 254.305 128.317C252.87 128.355 251.434 128.39 249.999 128.422C231.209 128.841 221.289 132.156 207.904 145.804C207.044 146.668 206.184 147.532 205.298 148.422C203.445 150.287 201.595 152.153 199.749 154.025C196.828 156.988 193.894 159.939 190.959 162.888C184.734 169.146 178.523 175.416 172.312 181.688C165.596 188.471 158.876 195.252 152.142 202.018C149.228 204.947 146.321 207.884 143.419 210.827C141.188 213.085 138.947 215.334 136.708 217.585C135.912 218.397 135.115 219.209 134.295 220.045C129.475 224.866 125.507 228.562 118.5 229.438C114.294 228.912 112.232 227.706 109 225C106.405 221.579 106.575 218.175 107 214C109.641 208.756 112.861 204.556 116.75 200.188C117.819 198.965 118.887 197.741 119.953 196.516C120.731 195.623 120.731 195.623 121.525 194.713C124.803 190.906 127.893 186.947 131 183C131.714 182.135 132.428 181.27 133.164 180.379C135.191 177.753 135.835 176.297 136 173C135.251 170.072 134.802 168.505 132.209 166.871C129.752 165.902 127.98 165.75 125.345 165.748C124.415 165.743 123.484 165.738 122.525 165.732C121.511 165.736 120.497 165.74 119.452 165.745C118.378 165.741 117.304 165.737 116.198 165.734C113.867 165.727 111.535 165.724 109.204 165.726C105.513 165.727 101.824 165.714 98.1334 165.697C87.6414 165.65 77.1494 165.626 66.6572 165.619C60.2399 165.614 53.8229 165.59 47.4057 165.554C44.9601 165.544 42.5145 165.542 40.0689 165.547C36.648 165.554 33.228 165.537 29.8071 165.514C28.797 165.522 27.787 165.531 26.7463 165.539C19.2871 165.451 16.168 163.835 10.625 158.875C8.21563 154.612 8.24088 150.785 9 146C11.2348 141.448 13.52 139.259 18 137C20.6936 136.615 20.6936 136.615 23.6289 136.599C25.2859 136.579 25.2859 136.579 26.9763 136.559C28.1598 136.559 29.3432 136.559 30.5625 136.559C31.7865 136.545 33.0106 136.532 34.2717 136.519C38.1812 136.478 42.0904 136.456 46 136.438C49.9095 136.414 53.8189 136.386 57.7283 136.346C60.16 136.321 62.5918 136.307 65.0237 136.302C66.1283 136.292 67.233 136.282 68.3711 136.271C69.3397 136.267 70.3084 136.263 71.3064 136.258C74.2249 135.978 76.3724 135.285 79 134C80.9944 131.462 81.0112 130.183 80.8125 126.938C79.9808 123.931 79.4777 122.811 77 121C73.7048 119.902 71.2578 119.869 67.7878 119.858C66.5061 119.851 65.2243 119.844 63.9037 119.837C63.2189 119.835 62.5341 119.833 61.8285 119.831C59.68 119.824 57.5317 119.809 55.3833 119.79C49.2751 119.738 43.1672 119.69 37.0588 119.674C33.3204 119.664 29.5825 119.635 25.8443 119.593C24.423 119.581 23.0017 119.575 21.5804 119.578C19.587 119.58 17.5936 119.556 15.6003 119.53C13.9018 119.521 13.9018 119.521 12.169 119.512C7.42172 118.745 4.27291 116.443 1.125 112.875C-0.566105 108.553 -0.652749 104.577 -3.69549e-06 100C2.39401 94.9358 4.91484 93.1271 10 91C13.1623 90.6148 13.1623 90.6148 16.5845 90.5994C17.8725 90.5861 19.1604 90.5727 20.4875 90.559C21.8797 90.5589 23.2719 90.5587 24.6641 90.5586C26.1032 90.5469 27.5424 90.5335 28.9815 90.5186C32.7578 90.4825 36.534 90.4623 40.3104 90.4471C46.3612 90.4222 52.4117 90.3825 58.4623 90.3252C60.5717 90.3089 62.6809 90.3051 64.7904 90.3022C66.713 90.2869 66.713 90.2869 68.6743 90.2713C69.8021 90.267 70.9298 90.2627 72.0917 90.2583C74.9623 90.0034 76.6015 89.5535 79 88C80.922 85.4374 81.0103 84.1681 80.8125 80.9375C79.9558 77.8403 79.4819 76.9195 77 75C74.8562 74.55 74.8562 74.55 72.4561 74.6153C71.5379 74.6052 70.6197 74.5951 69.6738 74.5846C68.1878 74.5892 68.1878 74.5892 66.6719 74.5938C65.6495 74.583 64.6271 74.5721 63.5738 74.561C60.2991 74.5266 57.0248 74.5111 53.75 74.5C49.4528 74.4855 45.1564 74.4517 40.8594 74.4063C39.8768 74.4093 38.8943 74.4123 37.882 74.4155C32.1512 74.3532 28.0507 73.7804 23 71C18.7494 66.4139 17.646 63.434 17.7148 57.3204C18.2629 52.8611 20.7762 50.1091 24 47.1875C27.9858 44.821 31.7897 44.8759 36.3574 44.8741C37.6456 44.8703 38.9337 44.8665 40.2609 44.8625C40.9464 44.8623 41.632 44.8621 42.3384 44.8619C45.2296 44.8585 48.1206 44.8371 51.0117 44.8167C56.3901 44.7787 61.7684 44.7474 67.147 44.7496C70.8931 44.7503 74.6385 44.727 78.3844 44.6877C79.8101 44.6772 81.2359 44.6757 82.6616 44.6833C84.6553 44.6929 86.649 44.669 88.6426 44.6436C89.7764 44.64 90.9101 44.6363 92.0782 44.6326C95.1842 44.2286 95.1842 44.2286 97.3973 41.6864C99.3095 39.0025 99.3095 39.0025 99 35.375C97.8806 31.5971 97.2921 30.9389 94 29C91.7489 28.554 91.7489 28.554 89.3267 28.6153C87.9447 28.6001 87.9447 28.6001 86.5348 28.5846C85.5462 28.5877 84.5576 28.5907 83.5391 28.5938C82.0041 28.5775 82.0041 28.5775 80.4381 28.561C77.167 28.5267 73.8962 28.5111 70.625 28.5C66.3252 28.4855 62.0261 28.4517 57.7266 28.4063C56.2497 28.4108 56.2497 28.4108 54.7431 28.4155C49.4136 28.3574 45.5881 28.0244 41 25C37.5987 21.323 36.1617 18.7138 35.6875 13.6875C36.1437 8.30451 38.4113 5.50096 42.2673 1.85811C45.4901 -0.333189 47.1733 -0.512129 51.0363 -0.541534Z" fill="#26C67C"/>
<path d="M412 -1.89245e-05C417.064 2.39399 418.873 4.91482 421 9.99998C421.385 13.1622 421.385 13.1622 421.401 16.5845C421.421 18.5164 421.421 18.5164 421.441 20.4874C421.441 21.8796 421.441 23.2718 421.441 24.664C421.453 26.1032 421.467 27.5424 421.481 28.9815C421.518 32.7578 421.538 36.5339 421.553 40.3103C421.578 46.3611 421.618 52.4117 421.675 58.4623C421.691 60.5717 421.695 62.6809 421.698 64.7904C421.713 66.7129 421.713 66.7129 421.729 68.6743C421.735 70.3659 421.735 70.3659 421.742 72.0917C421.997 74.9622 422.447 76.6015 424 79C426.563 80.922 427.832 81.0103 431.062 80.8125C434.16 79.9558 435.081 79.4818 437 77C437.45 74.8561 437.45 74.8561 437.385 72.456C437.395 71.5379 437.405 70.6197 437.415 69.6738C437.412 68.6831 437.409 67.6925 437.406 66.6719C437.423 65.1383 437.423 65.1383 437.439 63.5738C437.473 60.2991 437.489 57.0248 437.5 53.75C437.515 49.4528 437.548 45.1563 437.594 40.8594C437.591 39.8768 437.588 38.8943 437.585 37.882C437.647 32.1512 438.22 28.0507 441 23C445.586 18.7494 448.566 17.646 454.68 17.7148C459.139 18.2628 461.891 20.7761 464.812 24C467.179 27.9858 467.124 31.7897 467.126 36.3574C467.13 37.6455 467.134 38.9337 467.138 40.2608C467.138 40.9464 467.138 41.632 467.138 42.3384C467.142 45.2296 467.163 48.1205 467.183 51.0117C467.221 56.3901 467.253 61.7683 467.25 67.147C467.25 70.8931 467.273 74.6385 467.312 78.3844C467.323 79.8101 467.324 81.2359 467.317 82.6616C467.307 84.6553 467.331 86.649 467.356 88.6426C467.362 90.3432 467.362 90.3432 467.367 92.0782C467.771 95.1842 467.771 95.1842 470.314 97.3973C472.997 99.3095 472.997 99.3095 476.625 99C480.403 97.8806 481.061 97.292 483 94C483.446 91.7489 483.446 91.7489 483.385 89.3266C483.395 88.4053 483.405 87.484 483.415 86.5348C483.411 85.0519 483.411 85.0519 483.406 83.539C483.423 82.0041 483.423 82.0041 483.439 80.4381C483.473 77.167 483.489 73.8962 483.5 70.625C483.515 66.3252 483.548 62.0261 483.594 57.7265C483.591 56.742 483.588 55.7574 483.585 54.7431C483.643 49.4135 483.976 45.5881 487 41C490.677 37.5987 493.286 36.1617 498.312 35.6875C503.696 36.1437 506.499 38.4112 510.142 42.2672C512.333 45.4901 512.512 47.1733 512.542 51.0363C512.56 52.2485 512.579 53.4607 512.598 54.7097C512.598 56.0451 512.598 57.3806 512.597 58.716C512.611 60.1292 512.626 61.5424 512.643 62.9556C512.682 66.791 512.696 70.6261 512.702 74.4617C512.707 76.8645 512.718 79.2672 512.73 81.6699C512.773 90.0721 512.794 98.474 512.796 106.876C512.799 114.674 512.849 122.47 512.923 130.268C512.984 136.985 513.01 143.702 513.009 150.419C513.01 154.421 513.024 158.421 513.074 162.423C513.439 193.612 513.439 193.612 503 207C501.577 209.23 500.249 211.502 498.91 213.785C496.972 216.956 495.026 220.121 493.068 223.279C492.124 224.829 492.124 224.829 491.16 226.41C490.599 227.319 490.039 228.228 489.461 229.164C486.216 235.463 485.699 241.191 485.681 248.148C485.671 249.037 485.661 249.925 485.651 250.841C485.62 253.757 485.603 256.673 485.586 259.59C485.567 261.62 485.548 263.65 485.527 265.681C485.476 271.009 485.436 276.337 485.399 281.665C485.352 288.066 485.29 294.467 485.231 300.868C485.143 310.579 485.073 320.289 485 330C457.94 330 430.88 330 403 330C404.757 325.608 405.667 323.976 408.75 320.75C416.838 311.912 421.533 304.321 421.32 292.105C420.623 285.341 417.911 278.775 413 274C405.887 268.677 399.664 266.9 390.758 266.957C389.493 266.963 388.229 266.969 386.926 266.976C385.961 266.984 384.995 266.992 384 267C383.97 265.67 383.97 265.67 383.94 264.313C383.861 260.977 383.774 257.641 383.683 254.305C383.645 252.87 383.61 251.434 383.578 249.999C383.168 231.601 380.082 221.538 366.719 208.394C365.91 207.587 365.101 206.779 364.268 205.947C361.614 203.3 358.949 200.664 356.285 198.027C354.426 196.177 352.569 194.326 350.711 192.474C346.331 188.107 341.943 183.748 337.552 179.392C329.229 171.135 320.921 162.864 312.614 154.592C309.894 151.886 307.17 149.184 304.446 146.483C302.768 144.814 301.089 143.145 299.41 141.476C298.66 140.734 297.909 139.991 297.135 139.226C283.252 125.401 283.252 125.401 282.75 118.625C283.022 114.677 283.485 113.018 286 110C290.301 106.928 293.548 106.681 298.592 107.335C303.019 108.557 306.022 111.477 309.375 114.5C310.857 115.779 312.338 117.057 313.82 118.336C314.888 119.275 314.888 119.275 315.978 120.233C318.684 122.597 321.458 124.863 324.25 127.125C325.06 127.788 325.869 128.45 326.703 129.133C327.461 129.749 328.219 130.365 329 131C329.871 131.722 330.743 132.444 331.641 133.187C334.256 135.196 335.721 135.836 339 136C341.928 135.251 343.495 134.802 345.129 132.209C346.098 129.752 346.25 127.98 346.252 125.345C346.257 124.415 346.262 123.484 346.268 122.525C346.264 121.511 346.26 120.496 346.255 119.452C346.259 118.378 346.263 117.304 346.266 116.198C346.273 113.867 346.276 111.535 346.274 109.204C346.273 105.513 346.286 101.824 346.303 98.1334C346.35 87.6413 346.374 77.1493 346.381 66.6572C346.386 60.2399 346.41 53.8229 346.446 47.4057C346.456 44.9601 346.458 42.5145 346.453 40.0688C346.446 36.6479 346.463 33.2279 346.486 29.8071C346.478 28.797 346.469 27.787 346.461 26.7463C346.549 19.287 348.165 16.168 353.125 10.625C357.388 8.21561 361.215 8.24087 366 8.99998C370.552 11.2348 372.741 13.52 375 18C375.385 20.6936 375.385 20.6936 375.401 23.6289C375.414 24.7335 375.427 25.8382 375.441 26.9763C375.441 28.7515 375.441 28.7515 375.441 30.5625C375.461 32.3985 375.461 32.3985 375.481 34.2717C375.522 38.1812 375.544 42.0904 375.562 46C375.586 49.9095 375.614 53.8188 375.654 57.7283C375.679 60.16 375.693 62.5918 375.698 65.0237C375.713 66.6806 375.713 66.6806 375.729 68.3711C375.735 69.8241 375.735 69.8241 375.742 71.3064C376.022 74.2248 376.715 76.3724 378 79C380.538 80.9944 381.817 81.0112 385.062 80.8125C388.069 79.9808 389.189 79.4777 391 77C392.098 73.7048 392.131 71.2578 392.142 67.7878C392.149 66.5061 392.156 65.2243 392.163 63.9037C392.165 63.2189 392.167 62.534 392.169 61.8284C392.176 59.6799 392.192 57.5317 392.21 55.3832C392.262 49.2751 392.31 43.1671 392.326 37.0588C392.336 33.3204 392.365 29.5825 392.407 25.8443C392.42 24.423 392.425 23.0017 392.422 21.5804C392.42 19.587 392.445 17.5936 392.47 15.6003C392.479 13.9018 392.479 13.9018 392.488 12.169C393.255 7.4217 395.557 4.27289 399.125 1.12498C403.447 -0.56612 407.423 -0.652764 412 -1.89245e-05Z" fill="#26C67C"/>
<path d="M27 182C54.06 182 81.12 182 109 182C107.243 186.392 106.333 188.024 103.25 191.25C94.7083 200.568 90.2414 208.349 90.6289 221.199C91.3595 228.682 94.4131 233.815 99.8125 238.938C108.678 245.886 117.182 245.354 128 245C128.02 245.887 128.04 246.773 128.06 247.687C128.139 251.023 128.226 254.359 128.317 257.695C128.355 259.13 128.39 260.566 128.422 262.001C128.841 280.797 132.166 290.711 145.803 304.112C146.668 304.974 147.532 305.835 148.422 306.722C150.286 308.579 152.153 310.432 154.025 312.281C156.987 315.207 159.938 318.145 162.888 321.084C168.614 326.786 174.351 332.476 180.09 338.166C187.406 345.421 194.716 352.682 202.018 359.952C204.949 362.87 207.886 365.782 210.826 368.691C213.083 370.925 215.333 373.166 217.585 375.405C218.397 376.205 219.209 377.005 220.045 377.83C220.79 378.573 221.534 379.315 222.301 380.081C222.947 380.721 223.592 381.361 224.258 382.02C227.874 386.13 229.585 389.399 229.352 395.004C228.754 398.397 227.245 400.452 225 403C221.473 405.318 217.761 405.553 213.652 404.992C208.112 402.92 203.865 398.356 199.561 394.407C196.63 391.764 193.51 389.361 190.41 386.922C188.708 385.564 187.03 384.176 185.371 382.766C184.506 382.039 183.641 381.312 182.75 380.562C181.982 379.904 181.213 379.245 180.422 378.566C177.548 376.708 175.398 376.235 172 376C169.161 377.119 169.161 377.119 167 379C166.053 381.842 165.873 383.59 165.869 386.534C165.865 387.464 165.861 388.393 165.857 389.351C165.857 390.369 165.858 391.386 165.858 392.435C165.855 393.508 165.851 394.582 165.848 395.688C165.84 398.022 165.835 400.356 165.831 402.691C165.824 406.385 165.809 410.079 165.79 413.773C165.737 424.278 165.69 434.783 165.674 445.288C165.664 451.711 165.635 458.133 165.593 464.555C165.58 467.004 165.575 469.452 165.578 471.901C165.58 475.326 165.558 478.751 165.53 482.177C165.537 483.189 165.543 484.2 165.55 485.243C165.451 492.703 163.836 495.83 158.875 501.375C154.612 503.784 150.785 503.759 146 503C141.448 500.765 139.259 498.48 137 494C136.615 491.306 136.615 491.306 136.599 488.371C136.579 486.714 136.579 486.714 136.559 485.024C136.559 483.249 136.559 483.249 136.559 481.438C136.539 479.601 136.539 479.601 136.519 477.728C136.478 473.819 136.456 469.91 136.438 466C136.414 462.09 136.386 458.181 136.346 454.272C136.321 451.84 136.307 449.408 136.302 446.976C136.287 445.319 136.287 445.319 136.271 443.629C136.265 442.176 136.265 442.176 136.258 440.694C135.978 437.775 135.285 435.628 134 433C131.462 431.006 130.183 430.989 126.938 431.188C123.931 432.019 122.811 432.522 121 435C119.902 438.295 119.869 440.742 119.858 444.212C119.851 445.494 119.844 446.776 119.837 448.096C119.835 448.781 119.833 449.466 119.831 450.172C119.824 452.32 119.808 454.468 119.79 456.617C119.738 462.725 119.69 468.833 119.674 474.941C119.664 478.68 119.635 482.418 119.593 486.156C119.58 487.577 119.575 488.998 119.578 490.42C119.58 492.413 119.555 494.406 119.53 496.4C119.521 498.098 119.521 498.098 119.512 499.831C118.745 504.578 116.443 507.727 112.875 510.875C108.553 512.566 104.577 512.653 100 512C94.9357 509.606 93.127 507.085 91 502C90.6147 498.838 90.6147 498.838 90.5994 495.416C90.5793 493.484 90.5793 493.484 90.5589 491.513C90.5588 490.12 90.5587 488.728 90.5586 487.336C90.5468 485.897 90.5334 484.458 90.5186 483.018C90.4825 479.242 90.4622 475.466 90.447 471.69C90.4221 465.639 90.3825 459.588 90.3251 453.538C90.3088 451.428 90.305 449.319 90.3021 447.21C90.2868 445.287 90.2868 445.287 90.2712 443.326C90.2648 441.634 90.2648 441.634 90.2583 439.908C90.0033 437.038 89.5534 435.398 88 433C85.4373 431.078 84.168 430.99 80.9375 431.188C77.8403 432.044 76.9194 432.518 75 435C74.55 437.144 74.55 437.144 74.6152 439.544C74.6051 440.462 74.595 441.38 74.5846 442.326C74.5876 443.317 74.5906 444.307 74.5937 445.328C74.5775 446.862 74.5775 446.862 74.5609 448.426C74.5266 451.701 74.511 454.975 74.5 458.25C74.4854 462.547 74.4516 466.844 74.4062 471.141C74.4093 472.123 74.4123 473.106 74.4154 474.118C74.341 480.966 73.5433 485.98 69 491.375C65.3779 494.318 61.7604 494.336 57.2852 494.285C52.8457 493.731 50.0957 491.209 47.1875 488C44.8209 484.014 44.8759 480.21 44.874 475.643C44.8702 474.354 44.8664 473.066 44.8625 471.739C44.8623 471.054 44.8621 470.368 44.8619 469.662C44.8585 466.77 44.8371 463.879 44.8167 460.988C44.7787 455.61 44.7474 450.232 44.7495 444.853C44.7503 441.107 44.727 437.362 44.6876 433.616C44.6772 432.19 44.6756 430.764 44.6833 429.338C44.6929 427.345 44.669 425.351 44.6436 423.357C44.6399 422.224 44.6363 421.09 44.6325 419.922C44.2285 416.816 44.2285 416.816 41.6863 414.603C39.0025 412.69 39.0025 412.69 35.375 413C31.597 414.119 30.9388 414.708 29 418C28.554 420.251 28.554 420.251 28.6152 422.673C28.6051 423.595 28.595 424.516 28.5846 425.465C28.5876 426.454 28.5906 427.442 28.5937 428.461C28.5829 429.484 28.5721 430.508 28.5609 431.562C28.5266 434.833 28.5111 438.104 28.5 441.375C28.4854 445.675 28.4517 449.974 28.4062 454.273C28.4093 455.258 28.4123 456.243 28.4154 457.257C28.3573 462.586 28.0243 466.412 25 471C21.323 474.401 18.7138 475.838 13.6875 476.312C8.30495 475.856 5.49915 473.591 1.86143 469.73C-0.319667 466.531 -0.527757 464.844 -0.595418 461.006C-0.640517 459.202 -0.640517 459.202 -0.686528 457.36C-0.698855 456.048 -0.711181 454.735 -0.723882 453.383C-0.750604 451.979 -0.778816 450.575 -0.8084 449.172C-0.897614 444.561 -0.944196 439.951 -0.988286 435.34C-1.00581 433.742 -1.02354 432.143 -1.04147 430.545C-1.11376 423.877 -1.17587 417.209 -1.20934 410.541C-1.25696 401.054 -1.3622 391.572 -1.55383 382.087C-1.68448 375.385 -1.74711 368.683 -1.76219 361.979C-1.77275 357.994 -1.80968 354.015 -1.91968 350.031C-2.51061 327.482 1.59896 313.371 14.8654 295.029C22.0056 284.898 26.2863 276.29 26.3188 263.852C26.3289 262.963 26.3389 262.075 26.3493 261.159C26.38 258.243 26.3971 255.327 26.4141 252.41C26.4328 250.38 26.4524 248.35 26.4727 246.319C26.524 240.991 26.5636 235.663 26.6009 230.335C26.648 223.934 26.7096 217.533 26.7687 211.132C26.8568 201.421 26.9267 191.711 27 182Z" fill="#26C67C"/>
</g>
<defs>
<clipPath id="clip0_18_120">
<rect width="512" height="512" fill="white"/>
</clipPath>
</defs>
</svg>
